<svg xmlns="http://www.w3.org/2000/svg" version="1.1" xmlns:xlink="http://www.w3.org/1999/xlink" xmlns:svgjs="http://svgjs.dev/svgjs" width="1000" height="209" viewBox="0 0 1000 209"><g transform="matrix(1,0,0,1,-0.6060606060606233,-0.5655319276268074)"><svg viewBox="0 0 396 83" data-background-color="#ffffff" preserveAspectRatio="xMidYMid meet" height="209" width="1000" xmlns="http://www.w3.org/2000/svg" xmlns:xlink="http://www.w3.org/1999/xlink"><defs></defs><g id="tight-bounds" transform="matrix(1,0,0,1,0.2400000000000091,0.2245892344163849)"><svg viewBox="0 0 395.52 82.5508215311672" height="82.5508215311672" width="395.52"><g><svg viewBox="0 0 395.52 82.5508215311672" height="82.5508215311672" width="395.52"><g><svg viewBox="0 0 395.52 82.5508215311672" height="82.5508215311672" width="395.52"><g><svg viewBox="0 0 395.52 82.5508215311672" height="82.5508215311672" width="395.52"><g><svg viewBox="0 0 395.52 82.5508215311672" height="82.5508215311672" width="395.52"><rect width="395.52" height="82.5508215311672" x="0" y="0" opacity="1" fill="#0210af" data-fill-palette-color="tertiary"></rect><g transform="matrix(1,0,0,1,23.607599999999998,23.607599999999998)"><svg width="348.3048" viewBox="-0.15000000596046448 -35.52000045776367 358.5199890136719 36.369998931884766" height="35.3356215311672" data-palette-color="#ffffff"><path d="M23.03-34.65L30.15-34.65 26.1 0 17.57 0 15.05-24.78 12.28 0 3.6 0-0.15-34.65 7.53-34.65 8.7-7 11.58-30.65 18.63-30.65 21.3-7 23.03-34.65ZM51.82 0L50-7.48 39.85-7.48 38.02 0 29.45 0 40.05-34.65 50-34.65 60.6 0 51.82 0ZM44.9-28.75L41.15-13.43 48.65-13.43 44.9-28.75ZM88.32-28.38L79.05-28.38 79.05 0 70.84 0 70.84-28.38 61.12-28.38 61.12-34.65 89.17-34.65 88.32-28.38ZM107.89-35.52L107.89-35.52Q111.62-35.52 114.23-34.54 116.84-33.55 119.02-31.75L119.02-31.75 114.99-26.9Q113.57-28.08 111.84-28.76 110.12-29.45 108.09-29.45L108.09-29.45Q105.92-29.45 104.12-28.21 102.32-26.98 101.24-24.31 100.17-21.65 100.17-17.4L100.17-17.4Q100.17-13.23 101.21-10.59 102.24-7.95 104.07-6.71 105.89-5.48 108.24-5.48L108.24-5.48Q110.84-5.48 112.57-6.45 114.29-7.43 115.74-8.58L115.74-8.58 119.47-3.83Q117.52-1.9 114.67-0.53 111.82 0.85 107.79 0.85L107.79 0.85Q103.09 0.85 99.46-1.24 95.82-3.33 93.76-7.39 91.69-11.45 91.69-17.4L91.69-17.4Q91.69-23.2 93.83-27.25 95.97-31.3 99.64-33.41 103.32-35.52 107.89-35.52ZM147.39 0L139.19 0 139.19-14.6 130.79-14.6 130.79 0 122.59 0 122.59-34.65 130.79-34.65 130.79-21.35 139.19-21.35 139.19-34.65 147.39-34.65 147.39 0ZM176.46-28.8L162.84-28.8 162.84-20.48 174.84-20.48 174.84-14.73 162.84-14.73 162.84-5.88 177.31-5.88 177.31 0 154.64 0 154.64-34.65 177.29-34.65 176.46-28.8ZM200.21-17.5L200.21-17.5Q200.21-21 199.62-23.2 199.04-25.4 198-26.6 196.96-27.8 195.56-28.25 194.16-28.7 192.54-28.7L192.54-28.7 190.79-28.7 190.79-5.93 192.54-5.93Q194.24-5.93 195.65-6.46 197.06-7 198.09-8.29 199.11-9.58 199.66-11.83 200.21-14.08 200.21-17.5ZM208.71-17.5L208.71-17.5Q208.71-12.23 207.32-8.8 205.94-5.38 203.56-3.46 201.19-1.55 198.17-0.78 195.16 0 191.94 0L191.94 0 182.59 0 182.59-34.65 191.34-34.65Q194.66-34.65 197.77-33.96 200.89-33.27 203.35-31.44 205.81-29.6 207.26-26.24 208.71-22.88 208.71-17.5ZM235.81-12.58L214.16-12.58 214.16-18.73 235.81-18.73 235.81-12.58ZM268.31-28.38L259.03-28.38 259.03 0 250.83 0 250.83-28.38 241.11-28.38 241.11-34.65 269.16-34.65 268.31-28.38ZM297.38 0L289.18 0 289.18-14.6 280.78-14.6 280.78 0 272.58 0 272.58-34.65 280.78-34.65 280.78-21.35 289.18-21.35 289.18-34.65 297.38-34.65 297.38 0ZM303.73-34.65L326.23-34.65 326.23-28.65 319.08-28.65 319.08-6.03 326.23-6.03 326.23 0 303.73 0 303.73-6.03 310.88-6.03 310.88-28.65 303.73-28.65 303.73-34.65ZM358.37-10.13L358.37-10.13Q358.37-6.9 356.69-4.42 355-1.95 351.85-0.55 348.7 0.85 344.27 0.85L344.27 0.85Q339.37 0.85 336.06-0.59 332.75-2.02 330.57-4.15L330.57-4.15 334.72-8.75Q336.65-7.08 338.97-6.16 341.3-5.25 344.07-5.25L344.07-5.25Q345.8-5.25 347.1-5.75 348.4-6.25 349.12-7.2 349.85-8.15 349.85-9.5L349.85-9.5Q349.85-10.78 349.27-11.65 348.7-12.53 347.34-13.23 345.97-13.93 343.55-14.65L343.55-14.65Q339.5-15.9 337.04-17.4 334.57-18.9 333.46-20.88 332.35-22.85 332.35-25.48L332.35-25.48Q332.35-28.65 334.11-30.9 335.87-33.15 338.85-34.34 341.82-35.52 345.4-35.52L345.4-35.52Q349.42-35.52 352.5-34.36 355.57-33.2 357.82-31.05L357.82-31.05 353.95-26.6Q352.2-28.08 350.17-28.79 348.15-29.5 346.05-29.5L346.05-29.5Q344.5-29.5 343.32-29.11 342.15-28.73 341.5-27.98 340.85-27.23 340.85-26.1L340.85-26.1Q340.85-25 341.47-24.25 342.1-23.5 343.65-22.84 345.2-22.18 347.95-21.3L347.95-21.3Q351.22-20.3 353.56-18.91 355.9-17.53 357.14-15.43 358.37-13.33 358.37-10.13Z" opacity="1" transform="matrix(1,0,0,1,0,0)" fill="#ffffff" class="undefined-text-0" data-fill-palette-color="quaternary" id="text-0"></path></svg></g></svg></g></svg></g></svg></g><g></g></svg></g></svg><rect width="395.52" height="82.5508215311672" fill="none" stroke="none" visibility="hidden"></rect></g></svg></g></svg>