<svg xmlns="http://www.w3.org/2000/svg" version="1.1" xmlns:xlink="http://www.w3.org/1999/xlink" xmlns:svgjs="http://svgjs.com/svgjs" width="1000" height="1000"><rect width="1000" height="1000" rx="300" ry="300" fill="#032540"></rect><g transform="matrix(2.863789654486233,0,0,2.863789654486233,149.99999162888548,294.3062638689498)"><svg xmlns="http://www.w3.org/2000/svg" version="1.1" xmlns:xlink="http://www.w3.org/1999/xlink" xmlns:svgjs="http://svgjs.com/svgjs" width="244.43135999999998" height="143.65142648854192"><svg xmlns="http://www.w3.org/2000/svg" viewBox="0 0 244.43135999999998 143.65142648854192" height="143.65142648854192" width="244.43135999999998"><g><svg xmlns="http://www.w3.org/2000/svg" xmlns:xlink="http://www.w3.org/1999/xlink" version="1.1" x="0" y="0" viewBox="5.8420000076293945 24.54199981689453 88.2020034790039 51.83599853515625" enable-background="new 0 0 100 100" xml:space="preserve" height="143.65142648854192" width="244.43135999999998" class="icon-icon-0" data-fill-palette-color="accent" id="icon-0"><path d="M62.513 76.378H21.616v-8.11h40.896V76.378zM24.732 73.262h34.665v-1.878H24.732V73.262z" fill="#1ed5a9" data-fill-palette-color="accent"></path><path d="M83.964 30.821l-5.677 1.445v-7.724H5.842v41.286h64.122l2.564 10.078 21.516-5.476L83.964 30.821zM8.958 62.711V27.657h66.213v5.401l-4.321 1.1v-2.812h-57.57v27.677h54.952l0.938 3.688H8.958zM50.361 45.185c0 4.583-3.715 8.296-8.296 8.296-4.582 0-8.296-3.713-8.296-8.296 0-4.582 3.714-8.296 8.296-8.296C46.646 36.888 50.361 40.603 50.361 45.185zM81.712 34.609l8.543 33.571-15.476 3.938-8.543-33.57L81.712 34.609z" fill="#1ed5a9" data-fill-palette-color="accent"></path><polygon points="40.011,49.681 46.488,45.185 40.011,40.688 " fill="#1ed5a9" data-fill-palette-color="accent"></polygon><rect x="78.066" y="38.494" transform="matrix(0.2465 0.9691 -0.9691 0.2465 98.8682 -46.9946)" width="3.181" height="3.181" fill="#1ed5a9" data-fill-palette-color="accent"></rect><rect x="73.568" y="39.638" transform="matrix(0.247 0.969 -0.969 0.247 96.5426 -41.7851)" width="3.182" height="3.182" fill="#1ed5a9" data-fill-palette-color="accent"></rect><rect x="69.069" y="40.784" transform="matrix(0.2465 0.9692 -0.9692 0.2465 94.3116 -36.55)" width="3.182" height="3.181" fill="#1ed5a9" data-fill-palette-color="accent"></rect><rect x="79.218" y="43.024" transform="matrix(0.2465 0.9691 -0.9691 0.2465 104.1229 -44.6993)" width="3.181" height="3.181" fill="#1ed5a9" data-fill-palette-color="accent"></rect><rect x="74.72" y="44.169" transform="matrix(0.2468 0.9691 -0.9691 0.2468 101.8217 -39.4844)" width="3.181" height="3.181" fill="#1ed5a9" data-fill-palette-color="accent"></rect><rect x="70.222" y="45.313" transform="matrix(0.2466 0.9691 -0.9691 0.2466 99.5599 -34.2565)" width="3.18" height="3.18" fill="#1ed5a9" data-fill-palette-color="accent"></rect><rect x="80.347" y="47.459" transform="matrix(0.2465 0.9691 -0.9691 0.2465 109.2716 -42.4517)" width="3.181" height="3.181" fill="#1ed5a9" data-fill-palette-color="accent"></rect><rect x="75.849" y="48.603" transform="matrix(0.2465 0.9691 -0.9691 0.2465 106.9953 -37.2288)" width="3.181" height="3.181" fill="#1ed5a9" data-fill-palette-color="accent"></rect><rect x="71.35" y="49.749" transform="matrix(0.2462 0.9692 -0.9692 0.2462 104.7396 -31.9966)" width="3.181" height="3.18" fill="#1ed5a9" data-fill-palette-color="accent"></rect><rect x="81.475" y="51.894" transform="matrix(0.2461 0.9692 -0.9692 0.2461 114.459 -40.1904)" width="3.182" height="3.181" fill="#1ed5a9" data-fill-palette-color="accent"></rect><rect x="76.978" y="53.038" transform="matrix(0.2469 0.969 -0.969 0.2469 112.1109 -34.9935)" width="3.18" height="3.182" fill="#1ed5a9" data-fill-palette-color="accent"></rect><rect x="72.479" y="54.183" transform="matrix(0.2466 0.9691 -0.9691 0.2466 109.8566 -29.7614)" width="3.18" height="3.181" fill="#1ed5a9" data-fill-palette-color="accent"></rect></svg></g></svg></svg></g></svg>